# xmcd CD database file
#
# Track frame offsets:
#	150
#	2728
#	28845
#	45045
#	71997
#	88891
#	110195
#	127388
#	150953
#	166855
#	182993
#	203260
#	223985
#
# Disc length: 3428 seconds
#
# Revision: 0
# Processed by: cddbd v1.5.1PL0 Copyright (c) Steve Scherf et al.
# Submitted via: CDex 1.51
#
DISCID=b60d620d
DTITLE=Dukes of Dixieland - Riverboat Dixieland
DYEAR=1900
DGENRE=Jazz
TTITLE0=Welcome to New Orleans
TTITLE1=Royal Garden Blues
TTITLE2=Black Bottom Stomp
TTITLE3=Rosetta
TTITLE4=Millenberg Joys
TTITLE5=Just a Little While to Stay Here
TTITLE6=A Kiss to Build a Dream On
TTITLE7=Big Noise from Winnetka
TTITLE8=Honky Tonk Train Blues
TTITLE9=Washington and Lee Swing
TTITLE10=Just a Closer Walk With Thee
TTITLE11=Bourbon Street Parade
TTITLE12=Jazz Me Blues
EXTD=
EXTT0=
EXTT1=
EXTT2=
EXTT3=
EXTT4=
EXTT5=
EXTT6=
EXTT7=
EXTT8=
EXTT9=
EXTT10=
EXTT11=
EXTT12=
PLAYORDER=
